<svg xmlns="http://www.w3.org/2000/svg" width="1200" height="164" viewBox="0 0 1200 164" role="img"><title>NearNest</title><rect width="1200" height="164" fill="#C4523E"/><path d="M0 155L29 158L51 154L81 160L114 156L160 159L195 155L250 160L300 156L350 159L410 155L460 160L520 156L570 159L630 155L680 160L730 156L790 159L850 155L910 160L970 156L1040 160L1110 156L1200 158V164H0Z" fill="#F1E5D0" opacity=".32"/><path d="M34 25L151 17L161 137L42 144Z" fill="#F1E5D0" stroke="#20191D" stroke-width="2"/><g transform="translate(48 29) scale(1.02)"><g fill="none" stroke="#20191D" stroke-width="5" stroke-linecap="round" stroke-linejoin="round">
        <path d="M50 94C39 76 15 56 16 35C18 5 79 2 84 34C88 57 60 82 50 94Z"/>
        <path d="M30 43L50 25L71 43M34 40V62H66V40M46 61V48H56V61"/>
        </g><path d="M32 75Q49 88 69 74" fill="none" stroke="#D5A450" stroke-width="5" stroke-linecap="round"/></g><text x="196" y="49" font-family="monospace" font-size="14" letter-spacing="1" fill="#F1E5D0">01 / LOCAL STORES &amp; SERVICES</text><text x="190" y="115" font-family="Georgia,serif" font-size="59" font-weight="700" letter-spacing="-2" fill="#F1E5D0">NearNest</text><path d="M1055 101Q1110 130 1154 77M1132 78L1158 74L1152 99" fill="none" stroke="#F1E5D0" stroke-width="3" stroke-linecap="round"/><path d="M1100 24Q1103 41 1120 44Q1103 47 1100 64Q1097 47 1080 44Q1097 41 1100 24Z" fill="#F1E5D0"/><circle cx="1189" cy="12" r="1.1" fill="#F1E5D0" opacity=".3"/><circle cx="1198" cy="12" r="1.1" fill="#F1E5D0" opacity=".3"/><circle cx="1187" cy="21" r="1.1" fill="#F1E5D0" opacity=".3"/><circle cx="1196" cy="21" r="1.1" fill="#F1E5D0" opacity=".3"/><circle cx="1185" cy="30" r="1.1" fill="#F1E5D0" opacity=".3"/><circle cx="1194" cy="30" r="1.1" fill="#F1E5D0" opacity=".3"/><circle cx="1182" cy="39" r="1.1" fill="#F1E5D0" opacity=".3"/><circle cx="1191" cy="39" r="1.1" fill="#F1E5D0" opacity=".3"/><circle cx="1179" cy="48" r="1.1" fill="#F1E5D0" opacity=".3"/><circle cx="1188" cy="48" r="1.1" fill="#F1E5D0" opacity=".3"/><circle cx="1197" cy="48" r="1.1" fill="#F1E5D0" opacity=".3"/><circle cx="1176" cy="57" r="1.1" fill="#F1E5D0" opacity=".3"/><circle cx="1185" cy="57" r="1.1" fill="#F1E5D0" opacity=".3"/><circle cx="1194" cy="57" r="1.1" fill="#F1E5D0" opacity=".3"/><circle cx="1173" cy="66" r="1.1" fill="#F1E5D0" opacity=".3"/><circle cx="1182" cy="66" r="1.1" fill="#F1E5D0" opacity=".3"/><circle cx="1191" cy="66" r="1.1" fill="#F1E5D0" opacity=".3"/><circle cx="1170" cy="75" r="1.1" fill="#F1E5D0" opacity=".3"/><circle cx="1179" cy="75" r="1.1" fill="#F1E5D0" opacity=".3"/><circle cx="1188" cy="75" r="1.1" fill="#F1E5D0" opacity=".3"/><circle cx="1197" cy="75" r="1.1" fill="#F1E5D0" opacity=".3"/><circle cx="1167" cy="84" r="1.1" fill="#F1E5D0" opacity=".3"/><circle cx="1176" cy="84" r="1.1" fill="#F1E5D0" opacity=".3"/><circle cx="1185" cy="84" r="1.1" fill="#F1E5D0" opacity=".3"/><circle cx="1194" cy="84" r="1.1" fill="#F1E5D0" opacity=".3"/><circle cx="1163" cy="93" r="1.1" fill="#F1E5D0" opacity=".3"/><circle cx="1172" cy="93" r="1.1" fill="#F1E5D0" opacity=".3"/><circle cx="1181" cy="93" r="1.1" fill="#F1E5D0" opacity=".3"/><circle cx="1190" cy="93" r="1.1" fill="#F1E5D0" opacity=".3"/><circle cx="1199" cy="93" r="1.1" fill="#F1E5D0" opacity=".3"/><circle cx="1159" cy="102" r="1.1" fill="#F1E5D0" opacity=".3"/><circle cx="1168" cy="102" r="1.1" fill="#F1E5D0" opacity=".3"/><circle cx="1177" cy="102" r="1.1" fill="#F1E5D0" opacity=".3"/><circle cx="1186" cy="102" r="1.1" fill="#F1E5D0" opacity=".3"/><circle cx="1195" cy="102" r="1.1" fill="#F1E5D0" opacity=".3"/><circle cx="1156" cy="111" r="1.1" fill="#F1E5D0" opacity=".3"/><circle cx="1165" cy="111" r="1.1" fill="#F1E5D0" opacity=".3"/><circle cx="1174" cy="111" r="1.1" fill="#F1E5D0" opacity=".3"/><circle cx="1183" cy="111" r="1.1" fill="#F1E5D0" opacity=".3"/><circle cx="1192" cy="111" r="1.1" fill="#F1E5D0" opacity=".3"/><circle cx="1152" cy="120" r="1.1" fill="#F1E5D0" opacity=".3"/><circle cx="1161" cy="120" r="1.1" fill="#F1E5D0" opacity=".3"/><circle cx="1170" cy="120" r="1.1" fill="#F1E5D0" opacity=".3"/><circle cx="1179" cy="120" r="1.1" fill="#F1E5D0" opacity=".3"/><circle cx="1188" cy="120" r="1.1" fill="#F1E5D0" opacity=".3"/><circle cx="1197" cy="120" r="1.1" fill="#F1E5D0" opacity=".3"/><circle cx="1148" cy="129" r="1.1" fill="#F1E5D0" opacity=".3"/><circle cx="1157" cy="129" r="1.1" fill="#F1E5D0" opacity=".3"/><circle cx="1166" cy="129" r="1.1" fill="#F1E5D0" opacity=".3"/><circle cx="1175" cy="129" r="1.1" fill="#F1E5D0" opacity=".3"/><circle cx="1184" cy="129" r="1.1" fill="#F1E5D0" opacity=".3"/><circle cx="1193" cy="129" r="1.1" fill="#F1E5D0" opacity=".3"/><circle cx="1144" cy="138" r="1.1" fill="#F1E5D0" opacity=".3"/><circle cx="1153" cy="138" r="1.1" fill="#F1E5D0" opacity=".3"/><circle cx="1162" cy="138" r="1.1" fill="#F1E5D0" opacity=".3"/><circle cx="1171" cy="138" r="1.1" fill="#F1E5D0" opacity=".3"/><circle cx="1180" cy="138" r="1.1" fill="#F1E5D0" opacity=".3"/><circle cx="1189" cy="138" r="1.1" fill="#F1E5D0" opacity=".3"/><circle cx="1198" cy="138" r="1.1" fill="#F1E5D0" opacity=".3"/></svg>