<svg xmlns="http://www.w3.org/2000/svg" viewBox="0 0 1000 195" width="1000" height="195"><title>NearNest / React / Vite / Firebase / Firestore</title><rect width="1000" height="195" fill="#C4523E"/><path d="M0 188Q90 194 180 187T400 190T700 188T1000 189" stroke="#F1E5D0" stroke-width="3" fill="none" opacity=".4"/><g transform="translate(22 24) rotate(-4 50 50)"><path d="M0 0L103 3L100 109L-3 105Z" fill="#F1E5D0" stroke="#20191D" stroke-width="2"/><g transform="translate(10 9) scale(.82)"><g fill="none" stroke="#20191D" stroke-width="5" stroke-linecap="round" stroke-linejoin="round"><path d="M50 94Q9 56 16 31Q24 2 50 8Q84 5 85 38Q86 57 50 94Z M28 44L50 25L72 44 M34 42V65H66V42 M46 65V51H56V65"/></g></g></g><text x="147" y="42" font-family="monospace" font-size="18" fill="#F1E5D0">04 / DISCOVER</text><text x="142" y="103" font-family="Georgia" font-size="56" fill="#F1E5D0">NearNest</text><text x="147" y="151" font-family="Arial" font-size="23" fill="#F1E5D0">React / Vite / Firebase / Firestore</text><path d="M849 119Q902 153 955 102M935 99L960 98L954 121" fill="none" stroke="#F1E5D0" stroke-width="3"/></svg>