<svg xmlns="http://www.w3.org/2000/svg" viewBox="0 0 600 230" width="600" height="230"><title>TenderMate AI / Next.js / FastAPI / Supabase / Gemini</title><rect width="600" height="230" fill="#722F48"/><path d="M0 223Q90 229 180 222T400 225T700 223T1000 224" stroke="#F1E5D0" stroke-width="3" fill="none" opacity=".4"/><g transform="translate(22 24) rotate(-4 50 50)"><path d="M0 0L103 3L100 109L-3 105Z" fill="#F1E5D0" stroke="#20191D" stroke-width="2"/><g transform="translate(10 9) scale(.82)"><g fill="none" stroke="#20191D" stroke-width="5" stroke-linecap="round" stroke-linejoin="round"><path d="M22 12H64L80 28V88H22Z M64 12V30H80 M35 44H66 M35 57H57 M35 70H48 M61 65L68 73L91 49"/></g></g></g><text x="147" y="42" font-family="monospace" font-size="18" fill="#F1E5D0">01 / ANALYZE</text><text x="142" y="103" font-family="Georgia" font-size="44" fill="#F1E5D0">TenderMate AI</text><text x="25" y="166" font-family="Arial" font-size="23" fill="#F1E5D0">Next.js / FastAPI</text><text x="25" y="204" font-family="Arial" font-size="23" fill="#F1E5D0">Supabase / Gemini</text></svg>