<svg xmlns="http://www.w3.org/2000/svg" width="600" height="204" viewBox="0 0 600 204" role="img"><title>TenderMate AI | Next.js / FastAPI / Supabase / Gemini</title><rect width="600" height="204" fill="#722F48"/><path d="M0 198Q90 204 180 197T400 200T1000 198" stroke="#F1E5D0" stroke-width="2" fill="none" opacity=".45"/><g transform="translate(24 30) rotate(-4 44 44)"><path d="M0 0L89 2L88 94L-2 91Z" fill="#F1E5D0" stroke="#20191D" stroke-width="2"/><g transform="translate(4 3) scale(.8)"><path d="M22 12H64L80 28V88H22Z M64 12V30H80 M35 44H66 M35 57H57 M35 70H48 M61 65L68 73L91 49" fill="none" stroke="#20191D" stroke-width="4" stroke-linecap="round" stroke-linejoin="round"/></g></g><text x="140" y="34" font-family="monospace" font-size="17" fill="#F1E5D0">05 / ANALYZE</text><text x="136" y="88" font-family="Georgia" font-size="39" fill="#F1E5D0">TenderMate AI</text><text x="140" y="120" font-family="monospace" font-size="16" fill="#F1E5D0">DOCUMENT AI &amp; TENDER READINESS</text><text x="24" y="178" font-family="Arial" font-size="20" fill="#F1E5D0">Next.js / FastAPI / Supabase / Gemini</text></svg>
