<svg xmlns="http://www.w3.org/2000/svg" width="1000" height="816" viewBox="0 0 1000 816" role="img"><title>Technology toolkit: AI &amp; VISION: TensorFlow, Keras, OpenCV, Scikit-learn, Pandas, NumPy. LSTM / CNN / YOLOv8; CODE &amp; VERSION CONTROL: Python, Java, JavaScript, TypeScript, C, C++, Dart, Git. Problem-solving / GitHub; WEB &amp; APIs: React, Next.js, Vite, Streamlit, FastAPI. REST APIs / JWT / RBAC; DATA &amp; CLOUD: Firebase, PostgreSQL, Supabase, AWS, Docker. Firestore / AWS fundamentals</title><rect width="1000" height="816" fill="#F1E5D0"/><rect x="24" y="24" width="466" height="374" rx="8" fill="#FAF5EB" stroke="#D7C7B0"/><path d="M42 25H472" stroke="#722F48" stroke-width="3"/><text x="44" y="59" font-family="monospace" font-size="18" fill="#722F48">01 / AI &amp; VISION</text><text x="44" y="89" font-family="Arial" font-size="21" fill="#20191D">Models, perception &amp; analysis</text><rect x="44" y="113" width="136.667" height="102" rx="7" fill="#FFFDF8" stroke="#E6DCCD"/><svg data-tech="tensorflow" x="87.83333333333333" y="123" width="49" height="49" viewBox="0 0 128 128">
  <path d="m61.55 128-21.84-12.68V40.55L6.81 59.56l.08-28.32L61.55 0zM66.46 0v128l21.84-12.68V79.31l16.49 9.53-.1-24.63-16.39-9.36v-14.3l32.89 19.01-.08-28.32z" fill="#ff6f00" />
</svg><text x="112.333" y="201" text-anchor="middle" font-family="Arial" font-size="20" fill="#20191D">TensorFlow</text><rect x="188.667" y="113" width="136.667" height="102" rx="7" fill="#FFFDF8" stroke="#E6DCCD"/><svg data-tech="keras" x="232.5" y="123" width="49" height="49" viewBox="0 0 128 128"><path d="M128 128H0V0h128v128z" style="fill:#d00000"/><path d="M34.1 99.3c0 .1.1.2.1.3l2.2 2.2c.1.1.2.1.3.1h7.5c.1 0 .2-.1.3-.1l2.2-2.2c.1-.1.1-.2.1-.3V75.5c0-.1.1-.2.1-.3l9.5-9.1c.1-.1.2-.1.2 0l24.1 35.6c.1.1.2.1.3.1h10.6c.1 0 .2-.1.3-.2l1.9-3.7v-.3L65.7 56.9c-.1-.1 0-.2 0-.3l25.9-25.8c.1-.1.1-.2.1-.3V30c0-.1 0-.2-.1-.3l-1.5-3.4c0-.1-.1-.2-.2-.2H79.4c-.1 0-.2.1-.3.1L47 58.5c-.1.1-.1 0-.1-.1V28.9c0-.1-.1-.2-.1-.3l-2.2-2.3c-.1-.1-.2-.1-.3-.1h-7.6c-.1 0-.2.1-.3.1l-2.2 2.4c-.1.1-.1.2-.1.3v70.3z" style="fill:#fff"/></svg><text x="257" y="201" text-anchor="middle" font-family="Arial" font-size="20" fill="#20191D">Keras</text><rect x="333.333" y="113" width="136.667" height="102" rx="7" fill="#FFFDF8" stroke="#E6DCCD"/><svg data-tech="opencv" x="377.16666666666663" y="123" width="49" height="49" viewBox="0 0 128 128"><path d="M112.871 66.602c9.004 5.277 15.055 15.027 15.074 26.191.032 16.805-13.617 30.453-30.48 30.48-16.863.032-30.559-13.57-30.59-30.375-.02-11.164 5.996-20.933 14.984-26.246l8.774 14.778c.219.37.094.847-.262 1.09-3.32 2.25-5.496 6.046-5.488 10.347.012 6.895 5.633 12.477 12.55 12.461 6.919-.012 12.516-5.61 12.504-12.504-.007-4.3-2.195-8.09-5.523-10.328-.355-.242-.484-.719-.266-1.09zm-67.394-.18a30.495 30.495 0 00-14.907-3.867C13.703 62.555.035 76.18.035 92.985c0 16.804 13.668 30.43 30.535 30.43 16.946 0 30.95-14.337 30.524-31.212H43.906c-.453 0-.808.383-.812.832-.043 6.723-5.672 12.434-12.524 12.434-6.922 0-12.527-5.59-12.527-12.485 0-6.894 5.605-12.484 12.527-12.484 1.809 0 3.532.383 5.086 1.074.383.168.836.04 1.047-.316zm2.468-4.774c-8.992-5.293-15.027-15.054-15.027-26.218C32.918 18.625 46.59 5 63.453 5s30.535 13.625 30.535 30.43c0 11.164-6.035 20.925-15.027 26.218L70.21 46.86c-.219-.37-.094-.847.266-1.09 3.32-2.246 5.503-6.039 5.503-10.34 0-6.894-5.609-12.484-12.527-12.484-6.918 0-12.527 5.59-12.527 12.485 0 4.3 2.183 8.093 5.504 10.34.36.242.484.718.265 1.09zm0 0"/></svg><text x="401.667" y="201" text-anchor="middle" font-family="Arial" font-size="20" fill="#20191D">OpenCV</text><rect x="44" y="226" width="136.667" height="102" rx="7" fill="#FFFDF8" stroke="#E6DCCD"/><svg data-tech="scikitlearn" x="87.83333333333333" y="236" width="49" height="49" viewBox="0 0 128 128"><path fill="#f89939" d="M98.18 88.13c15.63-15.62 18.23-38.36 5.8-50.78-12.43-12.42-35.17-9.82-50.8 5.8-15.63 15.62-11.11 45.48-5.8 50.78 4.29 4.29 35.17 9.82 50.8-5.8Z"/><path fill="#3499cd" d="M34.04 65.56c-9.07-9.06-22.27-10.57-29.48-3.37-7.21 7.21-5.7 20.4 3.37 29.46 9.07 9.07 26.4 6.44 29.48 3.37 2.49-2.49 5.71-20.4-3.37-29.46Z"/><path fill="#010101" d="M123.82 85.68c-.58 0-.87-.35-.87-1.06 0-.53.35-1.69 1.04-3.46 1.01-2.59 1.52-4.45 1.52-5.58 0-.68-.2-1.25-.6-1.7-.4-.45-.9-.68-1.5-.68-.88 0-1.89.41-3.03 1.24-1.14.83-2.67 2.32-4.6 4.48.28-1.4.88-3.32 1.78-5.76l-4.31.83c-.98 2.12-1.69 4.03-2.13 5.73-.22.83-.38 1.69-.49 2.56-1.35 1.31-2.23 2.1-2.61 2.39-.39.29-.8.43-1.22.43-.39 0-.7-.15-.93-.44-.23-.29-.34-.69-.34-1.18 0-.53.1-1.14.3-1.83s.64-1.99 1.33-3.9l1.64-4.52-1.61.07c-1.46 2.78-3.17 4.28-5.13 4.49.53-1.38.8-2.44.8-3.18 0-.94-.46-1.41-1.38-1.41-1.09 0-1.94.51-2.55 1.54-.62 1.03-.93 2-.93 2.91s.51 1.55 1.52 2c-.66.97-1.4 1.88-2.2 2.74-.95.94-1.69 1.66-2.23 2.13-.55.49-1.06.73-1.52.73-.72 0-1.08-.51-1.08-1.52s.4-2.75 1.2-5.35l1.56-5.18h-.99l-3.61 2c-.59-1.35-1.62-2.03-3.09-2.03-1.17 0-2.51.5-4.03 1.49-1.52.99-2.77 2.28-3.74 3.89-.75 1.24-1.21 2.54-1.38 3.88-1.36 1.36-2.38 2.24-3.06 2.65-.71.42-1.45.63-2.23.63-1.99 0-3.22-1.15-3.69-3.45 5.19-1.52 7.78-3.5 7.78-5.94 0-.92-.33-1.66-.99-2.23-.66-.57-1.54-.85-2.63-.85-2.11 0-4.03 1.01-5.76 3.03-1.57 1.83-2.42 3.86-2.57 6.09-1.43 1.41-2.51 2.34-3.21 2.79-.72.46-1.4.69-2.03.69s-1.13-.3-1.5-.9c-.38-.6-.57-1.41-.57-2.44 0-.46.05-1.3.14-2.53 2.36-2.56 4.09-4.96 5.2-7.21 1.11-2.25 1.66-4.58 1.66-6.98 0-.85-.11-1.52-.33-2.02-.22-.5-.5-.75-.84-.75-.07 0-.18.02-.32.07l-4.49 1.66c-1.53 2.92-2.84 6.11-3.91 9.58-1.07 3.46-1.61 6.43-1.61 8.9 0 1.65.38 2.96 1.16 3.94.77.98 1.79 1.47 3.05 1.47 1.1 0 2.25-.35 3.46-1.05 1.21-.7 2.61-1.79 4.22-3.26s0-.02 0-.02c.19 1.11.65 2.04 1.37 2.8.99 1.02 2.28 1.54 3.88 1.54 1.44 0 2.75-.35 3.94-1.05 1.15-.67 2.44-1.72 3.88-3.11.12 1.04.46 1.94 1.03 2.71.73.97 1.61 1.46 2.64 1.46s2.09-.4 3.09-1.2c1-.8 2.08-2.05 3.26-3.73-.11 3.29.77 4.93 2.63 4.93.74 0 1.52-.27 2.33-.81s2.16-1.71 4.05-3.5c1.64-1.62 2.84-3.14 3.61-4.56 1.04-.18 1.99-.49 2.86-.94-1.78 2.79-2.67 5.02-2.67 6.68 0 .9.25 1.65.74 2.25.49.6 1.1.91 1.82.91 1.57 0 3.8-1.41 6.68-4.2 0 .22-.02.43-.02.65 0 .78.07 1.96.19 3.55l3.91-.92c0-1.06.02-1.9.05-2.53.06-.84.18-1.76.35-2.76.11-.59.38-1.15.81-1.68l.99-1.15c.36-.42.71-.8 1.02-1.13.37-.39.7-.72.99-.99.33-.29.62-.53.87-.69.27-.16.49-.25.65-.25.29 0 .44.19.44.57s-.28 1.26-.83 2.65c-1.04 2.59-1.56 4.52-1.56 5.78 0 .93.24 1.67.73 2.23.48.55 1.12.83 1.91.83 1.94 0 4.28-1.44 7-4.31V82.3c-1.93 2.27-3.32 3.41-4.18 3.41Zm-65.26-8.29c.8-3.91 1.62-6.94 2.45-9.11.83-2.17 1.47-3.26 1.9-3.26.2 0 .37.13.5.4.13.26.19.62.19 1.05 0 1.49-.46 3.26-1.4 5.33-.93 2.06-2.15 3.93-3.64 5.59Zm11.79-.98c.71-1.19 1.45-1.78 2.23-1.78.82 0 1.24.57 1.24 1.7 0 2.29-1.51 3.85-4.53 4.7 0-1.9.35-3.44 1.06-4.62Zm17.48 5.85c-1.04 2.01-2.16 3.01-3.33 3.01-.48 0-.88-.2-1.19-.59-.31-.39-.47-.91-.47-1.55 0-1.68.53-3.53 1.58-5.53 1.05-2 2.17-3 3.35-3 .49 0 .89.18 1.18.56.29.37.44.89.44 1.55 0 1.7-.52 3.55-1.56 5.56Z"/><path fill="#fff" d="M75.46 64.88c.15.21.22.48.22.8s-.09.61-.27.88-.44.49-.79.64c-.34.15-.73.23-1.16.23-.72 0-1.26-.15-1.64-.45s-.62-.74-.72-1.33l.93-.15c.05.37.2.66.43.85.24.2.57.3 1 .3s.75-.09.96-.26c.21-.17.31-.38.31-.62 0-.21-.09-.38-.28-.5-.13-.08-.45-.19-.96-.32-.69-.17-1.16-.32-1.43-.45s-.47-.3-.6-.53-.21-.47-.21-.74c0-.25.06-.47.17-.68.11-.21.27-.38.46-.52.15-.11.34-.2.59-.27.25-.07.52-.11.81-.11.43 0 .81.06 1.14.19.33.12.57.29.73.51.16.21.26.5.32.86l-.92.12c-.04-.28-.16-.51-.36-.67-.2-.16-.48-.24-.85-.24-.43 0-.74.07-.92.21-.18.14-.28.31-.28.5 0 .12.04.23.11.33.08.1.2.18.36.25.09.03.37.11.83.24.66.18 1.12.32 1.39.43.26.11.47.28.62.49Zm4.47 1.44c-.25.23-.55.34-.92.34-.46 0-.83-.17-1.11-.5s-.43-.88-.43-1.62.15-1.27.44-1.6.68-.51 1.15-.51c.31 0 .58.09.8.28.22.19.37.47.46.84l.91-.14c-.11-.56-.35-.99-.73-1.29-.38-.3-.87-.45-1.47-.45-.48 0-.91.11-1.32.34-.4.22-.71.56-.9 1.01-.2.45-.3.97-.3 1.57 0 .92.23 1.63.69 2.12.46.49 1.07.74 1.82.74.6 0 1.11-.18 1.53-.54.41-.36.67-.86.77-1.49l-.92-.12c-.07.47-.22.81-.47 1.04Zm2.19.98h.94v-5.52h-.94v5.52Zm0-6.55h.94v-1.08h-.94v1.08Zm6.73 1.02h-1.21l-2.22 2.25v-4.35h-.94v7.62h.94V65.1l.66-.63 1.83 2.82h1.16l-2.33-3.47 2.11-2.05Zm.96-1.02h.94v-1.08h-.94v1.08Zm0 6.55h.94v-5.52h-.94v5.52Zm4.41-.84c-.17.02-.31.04-.41.04-.14 0-.25-.02-.32-.07s-.13-.11-.16-.18c-.03-.08-.05-.25-.05-.51v-3.23h.94v-.73h-.94v-1.93l-.93.56v1.37h-.69v.73h.69v3.18c0 .56.04.93.11 1.1.08.18.21.32.39.42.19.11.45.16.79.16.21 0 .44-.03.71-.08l-.14-.83Z"/></svg><text x="112.333" y="314" text-anchor="middle" font-family="Arial" font-size="20" fill="#20191D">Scikit-learn</text><rect x="188.667" y="226" width="136.667" height="102" rx="7" fill="#FFFDF8" stroke="#E6DCCD"/><svg data-tech="pandas" x="232.5" y="236" width="49" height="49" viewBox="0 0 128 128"><path fill="#130754" d="M46.236 7.567h13.99v29.047h-13.99Zm0 59.668h13.99V96.28h-13.99Z"/><path fill="#ffca00" d="M46.236 45.092h13.99v13.705h-13.99Z"/><path fill="#130754" d="M23.763 31.446h13.989V128h-13.99ZM68.245 91.2h13.99v29.046h-13.99Zm0-59.72h13.99v29.047h-13.99Z"/><path fill="#e70488" d="M68.245 69.011h13.99v13.705h-13.99Z"/><path fill="#130754" d="M90.248 0h13.99v96.554h-13.99Z"/></svg><text x="257" y="314" text-anchor="middle" font-family="Arial" font-size="20" fill="#20191D">Pandas</text><rect x="333.333" y="226" width="136.667" height="102" rx="7" fill="#FFFDF8" stroke="#E6DCCD"/><svg data-tech="numpy" x="377.16666666666663" y="236" width="49" height="49" viewBox="0 0 128 128"><path fill="#4DABCF" d="m55.012 26.006-21.38-10.789L10.154 26.93l21.969 11.027Zm9.808 4.951L87.241 42.28 63.982 53.955l-22-11.043Zm29.948-15.581 23.037 11.552L97.2 37.272 74.735 25.938ZM84.853 10.4 64.113 0 43.598 10.24 64.97 21.014ZM68.64 99.702V128l25.122-12.537-.023-28.31ZM93.727 77.27l-.028-28.012-25.06 12.458V89.74Zm30.158-5.246v28.41l-21.43 10.69-.017-28.279zm0-9.935V34.25l-21.47 10.673.016 28.068z"/><path fill="#4c75cf" d="m59.77 61.716-16.918-8.512V89.97s-20.7-44.033-22.612-47.99c-.246-.513-1.263-1.07-1.522-1.209-3.731-1.947-14.603-7.45-14.603-7.45v64.977l15.04 8.063V72.382s20.478 39.346 20.689 39.78c.214.429 2.257 4.57 4.459 6.028 2.92 1.939 15.458 9.477 15.458 9.477z" /></svg><text x="401.667" y="314" text-anchor="middle" font-family="Arial" font-size="20" fill="#20191D">NumPy</text><path d="M44 352H470" stroke="#D7C7B0"/><text x="44" y="379" font-family="monospace" font-size="19" fill="#722F48">LSTM / CNN / YOLOv8</text><rect x="510" y="24" width="466" height="374" rx="8" fill="#FAF5EB" stroke="#D7C7B0"/><path d="M528 25H958" stroke="#7185B8" stroke-width="3"/><text x="530" y="59" font-family="monospace" font-size="18" fill="#435781">02 / CODE &amp; VERSION CONTROL</text><text x="530" y="89" font-family="Arial" font-size="21" fill="#20191D">The languages behind the work</text><rect x="530" y="113" width="100.5" height="102" rx="7" fill="#FFFDF8" stroke="#E6DCCD"/><svg data-tech="python" x="555.75" y="123" width="49" height="49" viewBox="0 0 128 128"><path fill="#FFD845" d="M49.33 62h29.159C86.606 62 93 55.132 93 46.981V19.183c0-7.912-6.632-13.856-14.555-15.176-5.014-.835-10.195-1.215-15.187-1.191-4.99.023-9.612.448-13.805 1.191C37.098 6.188 35 10.758 35 19.183V30h29v4H23.776c-8.484 0-15.914 5.108-18.237 14.811-2.681 11.12-2.8 17.919 0 29.53C7.614 86.983 12.569 93 21.054 93H31V79.952C31 70.315 39.428 62 49.33 62zm-1.838-39.11c-3.026 0-5.478-2.479-5.478-5.545 0-3.079 2.451-5.581 5.478-5.581 3.015 0 5.479 2.502 5.479 5.581-.001 3.066-2.465 5.545-5.479 5.545zm74.789 25.921C120.183 40.363 116.178 34 107.682 34H97v12.981C97 57.031 88.206 65 78.489 65H49.33C41.342 65 35 72.326 35 80.326v27.8c0 7.91 6.745 12.564 14.462 14.834 9.242 2.717 17.994 3.208 29.051 0C85.862 120.831 93 116.549 93 108.126V97H64v-4h43.682c8.484 0 11.647-5.776 14.599-14.66 3.047-9.145 2.916-17.799 0-29.529zm-41.955 55.606c3.027 0 5.479 2.479 5.479 5.547 0 3.076-2.451 5.579-5.479 5.579-3.015 0-5.478-2.502-5.478-5.579 0-3.068 2.463-5.547 5.478-5.547z"/></svg><text x="580.25" y="201" text-anchor="middle" font-family="Arial" font-size="17" fill="#20191D">Python</text><rect x="638.5" y="113" width="100.5" height="102" rx="7" fill="#FFFDF8" stroke="#E6DCCD"/><svg data-tech="java" x="664.25" y="123" width="49" height="49" viewBox="0 0 128 128"><path fill="#EA2D2E" d="M47.617 98.12c-19.192 5.362 11.677 16.439 36.115 5.969-4.003-1.556-6.874-3.351-6.874-3.351-10.897 2.06-15.952 2.222-25.844 1.092-8.164-.935-3.397-3.71-3.397-3.71zm33.189-10.46c-14.444 2.779-22.787 2.69-33.354 1.6-8.171-.845-2.822-4.805-2.822-4.805-21.137 7.016 11.767 14.977 41.309 6.336-3.14-1.106-5.133-3.131-5.133-3.131zm11.319-60.575c.001 0-42.731 10.669-22.323 34.187 6.024 6.935-1.58 13.17-1.58 13.17s15.289-7.891 8.269-17.777c-6.559-9.215-11.587-13.793 15.634-29.58zm9.998 81.144s3.529 2.91-3.888 5.159c-14.102 4.272-58.706 5.56-71.095.171-4.45-1.938 3.899-4.625 6.526-5.192 2.739-.593 4.303-.485 4.303-.485-4.952-3.487-32.013 6.85-13.742 9.815 49.821 8.076 90.817-3.637 77.896-9.468zM85 77.896c2.395-1.634 5.703-3.053 5.703-3.053s-9.424 1.685-18.813 2.474c-11.494.964-23.823 1.154-30.012.326-14.652-1.959 8.033-7.348 8.033-7.348s-8.812-.596-19.644 4.644C17.455 81.134 61.958 83.958 85 77.896zm5.609 15.145c-.108.29-.468.616-.468.616 31.273-8.221 19.775-28.979 4.822-23.725-1.312.464-2 1.543-2 1.543s.829-.334 2.678-.72c7.559-1.575 18.389 10.119-5.032 22.286zM64.181 70.069c-4.614-10.429-20.26-19.553.007-35.559C89.459 14.563 76.492 1.587 76.492 1.587c5.23 20.608-18.451 26.833-26.999 39.667-5.821 8.745 2.857 18.142 14.688 28.815zm27.274 51.748c-19.187 3.612-42.854 3.191-56.887.874 0 0 2.874 2.38 17.646 3.331 22.476 1.437 57-.8 57.816-11.436.001 0-1.57 4.032-18.575 7.231z"/></svg><text x="688.75" y="201" text-anchor="middle" font-family="Arial" font-size="17" fill="#20191D">Java</text><rect x="747" y="113" width="100.5" height="102" rx="7" fill="#FFFDF8" stroke="#E6DCCD"/><svg data-tech="javascript" x="772.75" y="123" width="49" height="49" viewBox="0 0 128 128"><path fill="#F0DB4F" d="M2 1v125h125V1H2zm66.119 106.513c-1.845 3.749-5.367 6.212-9.448 7.401-6.271 1.44-12.269.619-16.731-2.059-2.986-1.832-5.318-4.652-6.901-7.901l9.52-5.83c.083.035.333.487.667 1.071 1.214 2.034 2.261 3.474 4.319 4.485 2.022.69 6.461 1.131 8.175-2.427 1.047-1.81.714-7.628.714-14.065C58.433 78.073 58.48 68 58.48 58h11.709c0 11 .06 21.418 0 32.152.025 6.58.596 12.446-2.07 17.361zm48.574-3.308c-4.07 13.922-26.762 14.374-35.83 5.176-1.916-2.165-3.117-3.296-4.26-5.795 4.819-2.772 4.819-2.772 9.508-5.485 2.547 3.915 4.902 6.068 9.139 6.949 5.748.702 11.531-1.273 10.234-7.378-1.333-4.986-11.77-6.199-18.873-11.531-7.211-4.843-8.901-16.611-2.975-23.335 1.975-2.487 5.343-4.343 8.877-5.235l3.688-.477c7.081-.143 11.507 1.727 14.756 5.355.904.916 1.642 1.904 3.022 4.045-3.772 2.404-3.76 2.381-9.163 5.879-1.154-2.486-3.069-4.046-5.093-4.724-3.142-.952-7.104.083-7.926 3.403-.285 1.023-.226 1.975.227 3.665 1.273 2.903 5.545 4.165 9.377 5.926 11.031 4.474 14.756 9.271 15.672 14.981.882 4.916-.213 8.105-.38 8.581z"/></svg><text x="797.25" y="201" text-anchor="middle" font-family="Arial" font-size="17" fill="#20191D">JavaScript</text><rect x="855.5" y="113" width="100.5" height="102" rx="7" fill="#FFFDF8" stroke="#E6DCCD"/><svg data-tech="typescript" x="881.25" y="123" width="49" height="49" viewBox="0 0 128 128"><path fill="#007acc" d="M2 63.91v62.5h125v-125H2zm100.73-5a15.56 15.56 0 017.82 4.5 20.58 20.58 0 013 4c0 .16-5.4 3.81-8.69 5.85-.12.08-.6-.44-1.13-1.23a7.09 7.09 0 00-5.87-3.53c-3.79-.26-6.23 1.73-6.21 5a4.58 4.58 0 00.54 2.34c.83 1.73 2.38 2.76 7.24 4.86 8.95 3.85 12.78 6.39 15.16 10 2.66 4 3.25 10.46 1.45 15.24-2 5.2-6.9 8.73-13.83 9.9a38.32 38.32 0 01-9.52-.1A23 23 0 0180 109.19c-1.15-1.27-3.39-4.58-3.25-4.82a9.34 9.34 0 011.15-.73l4.6-2.64 3.59-2.08.75 1.11a16.78 16.78 0 004.74 4.54c4 2.1 9.46 1.81 12.16-.62a5.43 5.43 0 00.69-6.92c-1-1.39-3-2.56-8.59-5-6.45-2.78-9.23-4.5-11.77-7.24a16.48 16.48 0 01-3.43-6.25 25 25 0 01-.22-8c1.33-6.23 6-10.58 12.82-11.87a31.66 31.66 0 019.49.26zm-29.34 5.24v5.12H57.16v46.23H45.65V69.26H29.38v-5a49.19 49.19 0 01.14-5.16c.06-.08 10-.12 22-.1h21.81z"/></svg><text x="905.75" y="201" text-anchor="middle" font-family="Arial" font-size="17" fill="#20191D">TypeScript</text><rect x="530" y="226" width="100.5" height="102" rx="7" fill="#FFFDF8" stroke="#E6DCCD"/><svg data-tech="c" x="555.75" y="236" width="49" height="49" viewBox="0 0 128 128"><path fill="#a9bacd" d="M125 50c-4-32-24-50-62-50C29 0 3 24 3 64c0 39 24 64 64 64 32 0 55-19 58-50H87c-2 11-8 20-20 20-21 0-24-16-24-33 0-23 8-35 22-35 13 0 20 7 22 20z" /></svg><text x="580.25" y="314" text-anchor="middle" font-family="Arial" font-size="17" fill="#20191D">C</text><rect x="638.5" y="226" width="100.5" height="102" rx="7" fill="#FFFDF8" stroke="#E6DCCD"/><svg data-tech="cplusplus" x="664.25" y="236" width="49" height="49" viewBox="0 0 128 128">
    <path fill="#004482" d="M63.443 0c-1.782 0-3.564.39-4.916 1.172L11.594 28.27C8.89 29.828 6.68 33.66 6.68 36.78v54.197c0 1.562.55 3.298 1.441 4.841l-.002.002c.89 1.543 2.123 2.89 3.475 3.672l46.931 27.094c2.703 1.562 7.13 1.562 9.832 0h.002l46.934-27.094c1.352-.78 2.582-2.129 3.473-3.672.89-1.543 1.441-3.28 1.441-4.843V36.779c0-1.557-.55-3.295-1.441-4.838v-.002c-.891-1.545-2.121-2.893-3.473-3.67L68.359 1.173C67.008.39 65.226 0 63.443 0zm.002 26.033c13.465 0 26.02 7.246 32.77 18.91l-16.38 9.479c-3.372-5.836-9.66-9.467-16.39-9.467-10.432 0-18.922 8.49-18.922 18.924S53.013 82.8 63.445 82.8c6.735 0 13.015-3.625 16.395-9.465l16.375 9.477c-6.746 11.662-19.305 18.91-32.77 18.91-20.867 0-37.843-16.977-37.843-37.844s16.976-37.844 37.843-37.844v-.002zM92.881 57.57h4.201v4.207h4.203v4.203h-4.203v4.207h-4.201V65.98h-4.207v-4.203h4.207V57.57zm15.765 0h4.208v4.207h4.203v4.203h-4.203v4.207h-4.208V65.98h-4.205v-4.203h4.205V57.57z"/>
</svg><text x="688.75" y="314" text-anchor="middle" font-family="Arial" font-size="17" fill="#20191D">C++</text><rect x="747" y="226" width="100.5" height="102" rx="7" fill="#FFFDF8" stroke="#E6DCCD"/><svg data-tech="dart" x="772.75" y="236" width="49" height="49" viewBox="0 0 128 128"><path fill="#00c4b3" d="M35.2 34.9l-8.3-8.3v59.7l.1 2.8c0 1.3.2 2.8.7 4.3l65.6 23.1 16.3-7.2-74.4-74.4z"/><path d="M27.7 93.4zm81.9 15.9l-16.3 7.2-65.4-23.1c1.3 4.8 4 10.1 7 13.2l21.3 21.2 47.6.1 5.8-18.6z" fill="#22d3c5"/><path fill="#0075c9" d="M1.7 65.1C-.4 67.3.7 72 4 75.5l14.7 14.8 9.2 3.3c-.3-1.5-.7-3-.7-4.3l-.1-2.8-.2-59.8m82.7 82.6l7.2-16.4-23-65.6c-1.5-.3-3-.6-4.3-.7l-2.9-.1-59.6.1"/><path d="M93.6 27.3c.2 0 .2 0 0 0 .2 0 .2 0 0 0zm16 82l17.7-5.8V54.8l-20.4-20.5c-3-3-8.3-5.8-13.2-7l23.1 65.6" fill="#00a8e1"/><path fill="#00c4b3" d="M90.5 18.2L75.7 3.5c-3.4-3.4-8-4.4-10.4-2.3L26.9 26.6h59.5l2.9.1c1.3 0 2.8.2 4.3.7l-3.1-9.2z"/></svg><text x="797.25" y="314" text-anchor="middle" font-family="Arial" font-size="17" fill="#20191D">Dart</text><rect x="855.5" y="226" width="100.5" height="102" rx="7" fill="#FFFDF8" stroke="#E6DCCD"/><svg data-tech="git" x="881.25" y="236" width="49" height="49" viewBox="0 0 128 128"><path fill="#F34F29" d="M124.737 58.378L69.621 3.264c-3.172-3.174-8.32-3.174-11.497 0L46.68 14.71l14.518 14.518c3.375-1.139 7.243-.375 9.932 2.314 2.703 2.706 3.461 6.607 2.294 9.993l13.992 13.993c3.385-1.167 7.292-.413 9.994 2.295 3.78 3.777 3.78 9.9 0 13.679a9.673 9.673 0 01-13.683 0 9.677 9.677 0 01-2.105-10.521L68.574 47.933l-.002 34.341a9.708 9.708 0 012.559 1.828c3.778 3.777 3.778 9.898 0 13.683-3.779 3.777-9.904 3.777-13.679 0-3.778-3.784-3.778-9.905 0-13.683a9.65 9.65 0 013.167-2.11V47.333a9.581 9.581 0 01-3.167-2.111c-2.862-2.86-3.551-7.06-2.083-10.576L41.056 20.333 3.264 58.123a8.133 8.133 0 000 11.5l55.117 55.114c3.174 3.174 8.32 3.174 11.499 0l54.858-54.858a8.135 8.135 0 00-.001-11.501z"/></svg><text x="905.75" y="314" text-anchor="middle" font-family="Arial" font-size="17" fill="#20191D">Git</text><path d="M530 352H956" stroke="#D7C7B0"/><text x="530" y="379" font-family="monospace" font-size="19" fill="#435781">Problem-solving / GitHub</text><rect x="24" y="418" width="466" height="374" rx="8" fill="#FAF5EB" stroke="#D7C7B0"/><path d="M42 419H472" stroke="#C4523E" stroke-width="3"/><text x="44" y="453" font-family="monospace" font-size="18" fill="#C4523E">03 / WEB &amp; APIs</text><text x="44" y="483" font-family="Arial" font-size="21" fill="#20191D">Interfaces meet application logic</text><rect x="44" y="507" width="136.667" height="102" rx="7" fill="#FFFDF8" stroke="#E6DCCD"/><svg data-tech="react" x="87.83333333333333" y="517" width="49" height="49" viewBox="0 0 128 128"><g fill="#61DAFB"><circle cx="64" cy="64" r="11.4"/><path d="M107.3 45.2c-2.2-.8-4.5-1.6-6.9-2.3.6-2.4 1.1-4.8 1.5-7.1 2.1-13.2-.2-22.5-6.6-26.1-1.9-1.1-4-1.6-6.4-1.6-7 0-15.9 5.2-24.9 13.9-9-8.7-17.9-13.9-24.9-13.9-2.4 0-4.5.5-6.4 1.6-6.4 3.7-8.7 13-6.6 26.1.4 2.3.9 4.7 1.5 7.1-2.4.7-4.7 1.4-6.9 2.3C8.2 50 1.4 56.6 1.4 64s6.9 14 19.3 18.8c2.2.8 4.5 1.6 6.9 2.3-.6 2.4-1.1 4.8-1.5 7.1-2.1 13.2.2 22.5 6.6 26.1 1.9 1.1 4 1.6 6.4 1.6 7.1 0 16-5.2 24.9-13.9 9 8.7 17.9 13.9 24.9 13.9 2.4 0 4.5-.5 6.4-1.6 6.4-3.7 8.7-13 6.6-26.1-.4-2.3-.9-4.7-1.5-7.1 2.4-.7 4.7-1.4 6.9-2.3 12.5-4.8 19.3-11.4 19.3-18.8s-6.8-14-19.3-18.8zM92.5 14.7c4.1 2.4 5.5 9.8 3.8 20.3-.3 2.1-.8 4.3-1.4 6.6-5.2-1.2-10.7-2-16.5-2.5-3.4-4.8-6.9-9.1-10.4-13 7.4-7.3 14.9-12.3 21-12.3 1.3 0 2.5.3 3.5.9zM81.3 74c-1.8 3.2-3.9 6.4-6.1 9.6-3.7.3-7.4.4-11.2.4-3.9 0-7.6-.1-11.2-.4-2.2-3.2-4.2-6.4-6-9.6-1.9-3.3-3.7-6.7-5.3-10 1.6-3.3 3.4-6.7 5.3-10 1.8-3.2 3.9-6.4 6.1-9.6 3.7-.3 7.4-.4 11.2-.4 3.9 0 7.6.1 11.2.4 2.2 3.2 4.2 6.4 6 9.6 1.9 3.3 3.7 6.7 5.3 10-1.7 3.3-3.4 6.6-5.3 10zm8.3-3.3c1.5 3.5 2.7 6.9 3.8 10.3-3.4.8-7 1.4-10.8 1.9 1.2-1.9 2.5-3.9 3.6-6 1.2-2.1 2.3-4.2 3.4-6.2zM64 97.8c-2.4-2.6-4.7-5.4-6.9-8.3 2.3.1 4.6.2 6.9.2 2.3 0 4.6-.1 6.9-.2-2.2 2.9-4.5 5.7-6.9 8.3zm-18.6-15c-3.8-.5-7.4-1.1-10.8-1.9 1.1-3.3 2.3-6.8 3.8-10.3 1.1 2 2.2 4.1 3.4 6.1 1.2 2.2 2.4 4.1 3.6 6.1zm-7-25.5c-1.5-3.5-2.7-6.9-3.8-10.3 3.4-.8 7-1.4 10.8-1.9-1.2 1.9-2.5 3.9-3.6 6-1.2 2.1-2.3 4.2-3.4 6.2zM64 30.2c2.4 2.6 4.7 5.4 6.9 8.3-2.3-.1-4.6-.2-6.9-.2-2.3 0-4.6.1-6.9.2 2.2-2.9 4.5-5.7 6.9-8.3zm22.2 21l-3.6-6c3.8.5 7.4 1.1 10.8 1.9-1.1 3.3-2.3 6.8-3.8 10.3-1.1-2.1-2.2-4.2-3.4-6.2zM31.7 35c-1.7-10.5-.3-17.9 3.8-20.3 1-.6 2.2-.9 3.5-.9 6 0 13.5 4.9 21 12.3-3.5 3.8-7 8.2-10.4 13-5.8.5-11.3 1.4-16.5 2.5-.6-2.3-1-4.5-1.4-6.6zM7 64c0-4.7 5.7-9.7 15.7-13.4 2-.8 4.2-1.5 6.4-2.1 1.6 5 3.6 10.3 6 15.6-2.4 5.3-4.5 10.5-6 15.5C15.3 75.6 7 69.6 7 64zm28.5 49.3c-4.1-2.4-5.5-9.8-3.8-20.3.3-2.1.8-4.3 1.4-6.6 5.2 1.2 10.7 2 16.5 2.5 3.4 4.8 6.9 9.1 10.4 13-7.4 7.3-14.9 12.3-21 12.3-1.3 0-2.5-.3-3.5-.9zM96.3 93c1.7 10.5.3 17.9-3.8 20.3-1 .6-2.2.9-3.5.9-6 0-13.5-4.9-21-12.3 3.5-3.8 7-8.2 10.4-13 5.8-.5 11.3-1.4 16.5-2.5.6 2.3 1 4.5 1.4 6.6zm9-15.6c-2 .8-4.2 1.5-6.4 2.1-1.6-5-3.6-10.3-6-15.6 2.4-5.3 4.5-10.5 6-15.5 13.8 4 22.1 10 22.1 15.6 0 4.7-5.8 9.7-15.7 13.4z"/></g></svg><text x="112.333" y="595" text-anchor="middle" font-family="Arial" font-size="20" fill="#20191D">React</text><rect x="188.667" y="507" width="136.667" height="102" rx="7" fill="#FFFDF8" stroke="#E6DCCD"/><svg data-tech="nextjs" x="232.5" y="517" width="49" height="49" viewBox="0 0 128 128"><circle cx="64" cy="64" r="64"/><path fill="url(#tech-nextjs-a)" d="M106.317 112.014 49.167 38.4H38.4v51.179h8.614v-40.24l52.54 67.884a64.216 64.216 0 0 0 6.763-5.209z"/><path fill="url(#tech-nextjs-b)" d="M81.778 38.4h8.533v51.2h-8.533z"/><defs><linearGradient id="tech-nextjs-a" x1="109" x2="144.5" y1="116.5" y2="160.5" gradientTransform="scale(.71111)" gradientUnits="userSpaceOnUse"><stop stop-color="#fff"/><stop offset="1" stop-color="#fff" stop-opacity="0"/></linearGradient><linearGradient id="tech-nextjs-b" x1="121" x2="120.799" y1="54" y2="106.875" gradientTransform="scale(.71111)" gradientUnits="userSpaceOnUse"><stop stop-color="#fff"/><stop offset="1" stop-color="#fff" stop-opacity="0"/></linearGradient></defs></svg><text x="257" y="595" text-anchor="middle" font-family="Arial" font-size="20" fill="#20191D">Next.js</text><rect x="333.333" y="507" width="136.667" height="102" rx="7" fill="#FFFDF8" stroke="#E6DCCD"/><svg data-tech="vitejs" x="377.16666666666663" y="517" width="49" height="49" viewBox="0 0 128 128"><defs><linearGradient id="tech-vitejs-a" x1="6" x2="235" y1="33" y2="344" gradientTransform="translate(0 .937) scale(.3122)" gradientUnits="userSpaceOnUse"><stop offset="0" stop-color="#41d1ff"/><stop offset="1" stop-color="#bd34fe"/></linearGradient><linearGradient id="tech-vitejs-b" x1="194.651" x2="236.076" y1="8.818" y2="292.989" gradientTransform="translate(0 .937) scale(.3122)" gradientUnits="userSpaceOnUse"><stop offset="0" stop-color="#ffea83"/><stop offset=".083" stop-color="#ffdd35"/><stop offset="1" stop-color="#ffa800"/></linearGradient></defs><path fill="url(#tech-vitejs-a)" d="M124.766 19.52 67.324 122.238c-1.187 2.121-4.234 2.133-5.437.024L3.305 19.532c-1.313-2.302.652-5.087 3.261-4.622L64.07 25.187a3.09 3.09 0 0 0 1.11 0l56.3-10.261c2.598-.473 4.575 2.289 3.286 4.594Zm0 0"/><path fill="url(#tech-vitejs-b)" d="M91.46 1.43 48.954 9.758a1.56 1.56 0 0 0-1.258 1.437l-2.617 44.168a1.563 1.563 0 0 0 1.91 1.614l11.836-2.735a1.562 1.562 0 0 1 1.88 1.836l-3.517 17.219a1.562 1.562 0 0 0 1.985 1.805l7.308-2.223c1.133-.344 2.223.652 1.985 1.812l-5.59 27.047c-.348 1.692 1.902 2.614 2.84 1.164l.625-.968 34.64-69.13c.582-1.16-.421-2.48-1.69-2.234l-12.185 2.352a1.558 1.558 0 0 1-1.793-1.965l7.95-27.562A1.56 1.56 0 0 0 91.46 1.43Zm0 0"/></svg><text x="401.667" y="595" text-anchor="middle" font-family="Arial" font-size="20" fill="#20191D">Vite</text><rect x="44" y="620" width="136.667" height="102" rx="7" fill="#FFFDF8" stroke="#E6DCCD"/><svg data-tech="streamlit" x="87.83333333333333" y="630" width="49" height="49" viewBox="0 0 128 128">  <path     d="M 63.992579,72.521325 41.553732,60.660321 2.6034211,40.074058 c -0.035557,-0.03555 -0.1066637,-0.03555 -0.1422174,-0.03555 -1.4221913,-0.675528 -2.87993927,0.746641 -2.3466152,2.168863 l 19.8466965,50.619383 0.0035,0.0109 c 0.02134,0.04994 0.03912,0.09944 0.06046,0.149334 0.814189,1.887956 2.591938,3.054 4.526143,3.512657 0.163538,0.03587 0.280527,0.06782 0.476917,0.107073 0.195451,0.04351 0.46881,0.10282 0.703471,0.120745 0.03912,0.0033 0.07467,0.0033 0.113789,0.0065 h 0.02846 c 0.02841,0.0044 0.05687,0.0044 0.08533,0.0076 h 0.03908 c 0.02491,0.0033 0.05333,0.0033 0.07824,0.0033 h 0.04621 c 0.02846,0.0044 0.05687,0.0044 0.08533,0.0044 v 0 c 25.135232,2.740415 50.493562,2.740415 75.628755,0 v 0 c 0.30207,0 0.59732,-0.0145 0.88147,-0.04263 0.0926,-0.0109 0.18133,-0.02137 0.27051,-0.03195 0.0107,-0.0044 0.0247,-0.0044 0.0354,-0.0076 0.0606,-0.0076 0.12074,-0.01788 0.18133,-0.02857 0.0887,-0.0109 0.17791,-0.02813 0.26666,-0.04612 0.17791,-0.03925 0.25855,-0.06738 0.50004,-0.1506 0.24106,-0.08276 0.64169,-0.22784 0.89214,-0.348585 0.25087,-0.120746 0.42452,-0.236792 0.63444,-0.368201 0.2594,-0.163837 0.50644,-0.331086 0.75689,-0.518812 0.10794,-0.08276 0.18175,-0.135683 0.25983,-0.210351 l -0.0427,-0.02475 z"     fill="#ff4b4b"     id="tech-streamlit-path14"     style="stroke-width:0.426657" />  <path     d="m 125.44606,40.07457 h -0.0354 L 86.445785,60.660834 108.10586,92.919776 127.90272,42.207855 v -0.07109 c 0.49791,-1.493346 -1.0308,-2.844391 -2.45668,-2.062205"     fill="#7d353b"     id="tech-streamlit-path16"     style="stroke-width:0.426657" />  <path     d="m 66.069117,30.286053 c -0.995816,-1.454191 -3.164512,-1.454191 -4.124488,0 L 41.553817,60.660572 63.992579,72.521761 106.51616,94.995458 c 0.26709,-0.261532 0.48127,-0.516249 0.7074,-0.785468 0.31999,-0.394664 0.61865,-0.817481 0.8819,-1.290639 L 86.445379,60.660572 Z"     fill="#bd4043"     id="tech-streamlit-path18"     style="stroke-width:0.426657" /></svg><text x="112.333" y="708" text-anchor="middle" font-family="Arial" font-size="20" fill="#20191D">Streamlit</text><rect x="188.667" y="620" width="136.667" height="102" rx="7" fill="#FFFDF8" stroke="#E6DCCD"/><svg data-tech="fastapi" x="232.5" y="630" width="49" height="49" viewBox="0 0 128 128"><path d="M56.813 127.586c-1.903-.227-3.899-.52-4.434-.652a48.078 48.078 0 00-2.375-.5 36.042 36.042 0 01-2.703-.633c-4.145-1.188-4.442-1.285-7.567-2.563-2.875-1.172-8.172-3.91-9.984-5.156-.496-.344-.96-.621-1.031-.621-.07 0-1.23-.816-2.578-1.813-8.57-6.343-15.004-14.043-19.653-23.527-.8-1.629-1.453-3.074-1.453-3.21 0-.134-.144-.505-.32-.817-.363-.649-.88-2.047-1.297-3.492a20.047 20.047 0 00-.625-1.813c-.195-.46-.352-1.02-.352-1.246 0-.227-.195-.965-.433-1.645-.238-.675-.43-1.472-.43-1.77 0-.296-.187-1.32-.418-2.276C.598 73.492 0 67.379 0 63.953c0-3.422.598-9.535 1.16-11.894.23-.957.418-2 .418-2.32 0-.321.145-.95.32-1.4.18-.448.41-1.253.516-1.788.11-.535.36-1.457.563-2.055l.59-1.726c.433-1.293.835-2.387 1.027-2.813.11-.238.539-1.21.957-2.16.676-1.535 2.125-4.43 2.972-5.945.309-.555.426-.739 2.098-3.352 2.649-4.148 7.176-9.309 11.39-12.988 1.485-1.297 6.446-5.063 6.669-5.063.062 0 .53-.281 1.043-.625 1.347-.902 2.668-1.668 4.39-2.531a53.06 53.06 0 001.836-.953c.285-.164.82-.41 3.567-1.64.605-.27 1.257-.516 3.136-1.173.414-.144 1.246-.449 1.84-.672.598-.222 1.301-.406 1.563-.406.258 0 .937-.18 1.508-.402.57-.223 1.605-.477 2.304-.563.696-.082 1.621-.277 2.055-.43.43-.148 1.61-.34 2.621-.425a72.572 72.572 0 003.941-.465c2.688-.394 8.532-.394 11.192 0a75.02 75.02 0 003.781.445c.953.079 2.168.278 2.703.442.535.16 1.461.36 2.055.433.594.079 1.594.325 2.222.551.63.23 1.344.414 1.59.414s.754.137 1.125.309c.375.168 1.168.449 1.766.625.594.18 1.613.535 2.27.797.652.261 1.527.605 1.945.761.77.29 6.46 3.137 7.234 3.622 6.281 3.917 9.512 6.476 13.856 10.964 5.238 5.414 8.715 10.57 12.254 18.16.25.536.632 1.329.851 1.758.215.434.395.942.395 1.13 0 .19.18.76.402 1.269.602 1.383 1.117 2.957 1.36 4.16.12.59.343 1.32.495 1.621.153.3.332 1.063.403 1.688.07.624.277 1.648.453 2.269 1.02 3.531 1.527 13.934.91 18.535-.183 1.367-.39 3.02-.46 3.672-.118 1.117-.708 4.004-1.212 5.945l-.52 2.055c-.98 3.957-3.402 9.594-6.359 14.809-1.172 2.07-5.101 7.668-5.843 8.324-.067.058-.399.45-.735.863-.336.418-1.414 1.586-2.39 2.594-4.301 4.441-7.77 7.187-13.86 10.969-.722.449-6.847 3.441-7.992 3.906-.594.238-1.586.64-2.203.89-.613.247-1.297.454-1.512.458-.215.003-.781.195-1.258.425-.476.23-1.082.422-1.351.426-.266.004-1.043.192-1.727.418-.683.23-1.633.477-2.11.55-.476.075-1.495.278-2.269.45-.773.172-3.11.508-5.187.746a59.06 59.06 0 01-13.945-.031zm4.703-12.5c.3-.234.609-.7.691-1.027.18-.723 29.234-58.97 29.781-59.7.461-.617.504-1.605.082-1.953-.222-.187-3.004-.246-10.43-.234-5.57.012-10.253.016-10.406.012-.226-.008-.273-3.73-.25-19.672.016-10.817-.035-19.766-.113-19.89-.078-.126-.383-.227-.68-.227-.418 0-.613.18-.87.808-.485 1.168-1.825 3.82-8.348 16.485a3554.569 3554.569 0 00-4.055 7.89c-1.156 2.262-2.98 5.813-4.047 7.89a8751.248 8751.248 0 00-8.598 16.759c-4.933 9.636-5.53 10.785-5.742 11.039-.41.496-.633 1.64-.402 2.07.21.394.629.41 11.043.394 5.953-.007 10.863.024 10.914.07.137.141.086 37.31-.055 38.196-.093.582-.031.89.235 1.156.46.461.586.457 1.25-.066zm0 0" fill="#049688"/></svg><text x="257" y="708" text-anchor="middle" font-family="Arial" font-size="20" fill="#20191D">FastAPI</text><path d="M44 746H470" stroke="#D7C7B0"/><text x="44" y="773" font-family="monospace" font-size="19" fill="#C4523E">REST APIs / JWT / RBAC</text><rect x="510" y="418" width="466" height="374" rx="8" fill="#FAF5EB" stroke="#D7C7B0"/><path d="M528 419H958" stroke="#967028" stroke-width="3"/><text x="530" y="453" font-family="monospace" font-size="18" fill="#967028">04 / DATA &amp; CLOUD</text><text x="530" y="483" font-family="Arial" font-size="21" fill="#20191D">Persistence, services &amp; deployment</text><rect x="530" y="507" width="136.667" height="102" rx="7" fill="#FFFDF8" stroke="#E6DCCD"/><svg data-tech="firebase" x="573.8333333333334" y="517" width="49" height="49" viewBox="0 0 128 128"><path fill="#ffa000" d="M34.872 0a1.94 1.94 0 0 0-.307.028A1.933 1.933 0 0 0 32.97 1.64L17.911 98l9.911-18.867 25.066-47.724L36.6 1.028l-.002-.002A1.935 1.935 0 0 0 34.872 0Zm28.387 18.294c-.722 0-1.38.396-1.716 1.035l-7.459 14.203-.008-.014-34.1 64.922 10.75-10.767 34.46-34.52 11.503-11.524-11.712-22.3a1.938 1.938 0 0 0-1.718-1.035zm32.175 8.301a1.907 1.907 0 0 0-.52.054 1.938 1.938 0 0 0-.913.514L79.18 42.006 66.623 54.589l-48.994 49.078 41.613 23.337h.002a7.846 7.846 0 0 0 7.653 0l42.532-23.647-12.145-75.153v.008a1.937 1.937 0 0 0-1.324-1.524 1.957 1.957 0 0 0-.526-.093Zm14.938 77.4-.6.049.249.146z"/></svg><text x="598.333" y="595" text-anchor="middle" font-family="Arial" font-size="20" fill="#20191D">Firebase</text><rect x="674.667" y="507" width="136.667" height="102" rx="7" fill="#FFFDF8" stroke="#E6DCCD"/><svg data-tech="postgresql" x="718.5" y="517" width="49" height="49" viewBox="0 0 128 128"><path fill-rule="evenodd" clip-rule="evenodd" fill="#336791" d="M123.258 76.784c-.45-2.918-2.901-4.829-5.752-4.958-1.032-.047-2.08.061-3.109.192-1.243.158-2.471.438-3.711.623-.857.128-1.726.187-2.582.275l-.021-.111c1.598-3.018 3.263-6.003 4.775-9.064 1.159-2.348 2.151-4.781 3.176-7.194 1.696-3.998 3.051-8.12 4.173-12.309 1.075-4.011 1.995-8.066 2.284-12.227.116-1.662.196-3.331.187-4.995-.008-1.327-.151-2.656-.284-3.979-.15-1.516-.608-2.953-1.242-4.336-.836-1.822-2.132-3.317-3.496-4.737-1.092-1.137-2.293-2.173-3.484-3.208-1.698-1.477-3.607-2.656-5.59-3.703a32.18 32.18 0 00-7.09-2.75c-1.493-.381-3.02-.664-4.532-.966-.544-.11-1.089-.337-1.633-.337H85.086c-.37 0-.737.191-1.11.233-2.452.273-4.875.735-7.228 1.464-.88.273-1.684.101-2.52.024-.641-.059-1.271-.231-1.912-.263-2.442-.122-4.887-.301-7.328-.275-2.339.024-4.654.409-6.918 1.052-1.895.538-3.749 1.195-5.447 2.191-.727.426-1.303.346-2.055.129-2.527-.729-5.072-1.414-7.639-1.989-1.6-.358-3.245-.536-4.879-.707a57.214 57.214 0 00-4.718-.294c-1.538-.033-3.087-.032-4.618.104a30.16 30.16 0 00-7.158 1.513 23.813 23.813 0 00-7.086 3.865c-2.167 1.715-3.905 3.809-5.303 6.2-1.473 2.523-2.483 5.224-3.111 8.061-.34 1.537-.555 3.117-.788 4.678-.073.486.732.972-.268 1.456v6.794c1 .452.208.903.266 1.356.139 1.089.262 2.187.446 3.268.291 1.711.636 3.417.988 5.117a324.86 324.86 0 001.546 7.111c.396 1.72.847 3.43 1.319 5.131.721 2.598 1.431 5.201 2.246 7.77.757 2.387 1.624 4.74 2.484 7.093 1.191 3.255 2.617 6.405 4.327 9.424 1.479 2.614 3.169 5.062 5.436 7.076 1.494 1.327 3.157 2.347 5.093 2.857 1.521.4 3.067.448 4.624.129a10.979 10.979 0 004.824-2.311c.163-.134.342-.236.535.01.735.931 1.719 1.552 2.748 2.089 2.777 1.448 5.803 1.882 8.877 2.059.744.043 1.496-.064 2.246-.085 1.461-.04 2.881-.325 4.278-.729.732-.212 1.447-.481 2.192-.732.039.793.089 1.557.112 2.321l.104 4.166c.019.634.044 1.27.103 1.901.151 1.627.299 3.255.493 4.877.135 1.118.275 2.245.538 3.336a38.176 38.176 0 002.158 6.428 13.81 13.81 0 003.9 5.185c2.22 1.836 4.822 2.619 7.632 2.764 1.162.061 2.357.004 3.501-.204a49.01 49.01 0 005.387-1.275c3.591-1.084 6.695-2.956 9.014-5.981 1.32-1.724 2.404-3.589 3.1-5.648.574-1.701 1.115-3.419 1.545-5.16.34-1.372.508-2.787.715-4.188.137-.927.219-1.863.305-2.797.14-1.517.283-3.033.384-4.553.07-1.058.067-2.121.109-3.181.013-.323.065-.644.095-.966.028-.298.178-.401.482-.396 1.071.016 2.144.044 3.212-.004 1.197-.054 2.405-.105 3.583-.303a56.542 56.542 0 004.99-1.067c1.943-.508 3.725-1.418 5.44-2.455 1.998-1.207 3.819-2.623 5.297-4.447 1.285-1.591 1.894-3.43 1.584-5.438zm-3.412.982c-.066.915-.485 1.699-1.093 2.369-2.869 3.163-6.468 5.082-10.585 6.027-1.564.358-3.178.544-4.779.692a32.093 32.093 0 01-4.114.097c-1.006-.038-2.004-.268-3.032-.416-.103.94-.201 1.919-.32 2.896l-.479 3.745c-.145 1.187-.258 2.378-.407 3.564-.146 1.151-.328 2.298-.481 3.449-.143 1.072-.248 2.149-.407 3.219-.245 1.64-.479 3.284-.799 4.911-.384 1.945-.973 3.829-1.934 5.583-1.172 2.141-2.834 3.772-4.949 4.98-2.18 1.246-4.563 1.894-6.979 2.436-1.71.384-3.472.447-5.204.291-3.004-.272-5.568-1.557-7.506-3.886-1.85-2.223-3.102-4.771-3.55-7.655a63.102 63.102 0 01-.491-4.136 108.067 108.067 0 01-.299-4.62 250.203 250.203 0 01-.197-5.871c-.053-2.406-.07-4.812-.104-7.218l-.006-.092c-1.224.734-2.427 1.538-3.703 2.2a12.392 12.392 0 01-4.798 1.353c-1.318.1-2.653.191-3.965.086-2.151-.173-4.3-.51-6.226-1.569-.781-.43-1.596-.953-2.134-1.64-1.29-1.646-.672-3.726 1.273-4.727 1.344-.693 2.811-.982 4.268-1.319a44.368 44.368 0 003.761-1.029c1.222-.4 1.993-1.391 2.754-2.363l1.206-1.551c-.503-.053-.977-.107-1.451-.151-1.439-.136-2.812-.532-4.125-1.114-1.124-.497-1.141-.551-1.965.343-1.376 1.494-2.714 3.023-4.062 4.542-.992 1.117-1.978 2.241-2.965 3.361-.978 1.108-1.894 2.279-2.947 3.31-1.564 1.531-3.449 2.452-5.698 2.348-1.443-.066-2.764-.572-3.952-1.399-2.452-1.708-4.104-4.097-5.608-6.606-1.927-3.215-3.406-6.64-4.672-10.159-.876-2.432-1.756-4.866-2.521-7.333-.831-2.681-1.56-5.396-2.277-8.11a157.373 157.373 0 01-1.482-6.182 216.117 216.117 0 01-1.464-7.079c-.298-1.599-.471-3.221-.712-4.831-.325-2.17-.385-4.36-.267-6.539.105-1.963.387-3.921.667-5.871.388-2.698 1.277-5.244 2.556-7.648.783-1.473 1.755-2.812 2.879-4.056 1.845-2.042 4.078-3.518 6.562-4.626 1.736-.774 3.57-1.24 5.439-1.604 2.774-.54 5.573-.519 8.373-.461 1.224.025 2.443.248 3.666.369 2.633.262 5.214.816 7.762 1.5 1.857.498 3.676 1.143 5.518 1.703.185.056.456.051.607-.048 2.496-1.629 5.224-2.704 8.125-3.319 1.101-.233 2.237-.335 3.363-.407 1.369-.087 2.749-.167 4.115-.088 1.642.094 3.276.336 4.908.56.792.108 1.565.383 2.359.458.38.036.783-.242 1.185-.335 2.049-.473 4.089-1 6.156-1.374 1.539-.278 3.111-.409 4.676-.499 1.745-.1 3.503-.173 5.247-.089a36.66 36.66 0 016.555.923c2.677.623 5.245 1.528 7.686 2.784 1.824.938 3.558 2.026 5.119 3.364 1.023.878 2.07 1.745 2.994 2.723 1.14 1.206 2.303 2.413 3.018 3.958.538 1.165.922 2.371 1.028 3.647.132 1.586.292 3.178.277 4.766-.014 1.519-.221 3.037-.368 4.552-.334 3.454-1.085 6.833-1.997 10.167a116.972 116.972 0 01-2.589 8.17c-.879 2.481-1.893 4.917-2.918 7.343a80.07 80.07 0 01-2.458 5.303c-1.677 3.286-3.421 6.538-5.438 9.633-.348.535-.678 1.083-1.018 1.629.88.594 1.877.803 2.881.911.955.104 1.929.166 2.883.095 1.527-.113 3.049-.331 4.567-.544 1.504-.21 2.978-.638 4.522-.525 1.542.112 2.645 1.284 2.54 2.729zm-22.013-3.353c-.655-.846-1.323-1.682-1.964-2.538-1.006-1.344-1.729-2.845-2.455-4.353-.688-1.429-1.532-2.782-2.257-4.195-1.265-2.465-2.553-4.922-3.718-7.435-1.465-3.157-2.62-6.426-2.984-9.923-.154-1.48-.193-2.958.106-4.424.479-2.341 1.702-4.172 3.758-5.428 1.907-1.165 4.032-1.541 6.209-1.659 1.351-.073 2.708-.013 4.11-.013l-.047-.237c-.872-1.823-1.687-3.677-2.641-5.457-1.346-2.512-3.068-4.777-4.986-6.877-1.421-1.555-2.96-2.998-4.646-4.273-1.658-1.255-3.405-2.376-5.269-3.293-2.223-1.093-4.538-1.938-6.967-2.477-2.334-.518-4.683-.835-7.077-.861-2.042-.022-4.071.07-6.06.531-3.002.695-5.748 1.931-8.137 3.933a21.143 21.143 0 00-3.517 3.77c-1.196 1.643-2.161 3.417-2.986 5.277-1.132 2.552-1.909 5.208-2.44 7.938-.266 1.361-.474 2.734-.686 4.106-.074.48-.08.971-.123 1.521.369-.192.635-.34.907-.472l.885-.397c2.993-1.369 6.094-2.25 9.427-2.149 1.416.043 2.771.323 4.03.943 2.415 1.191 3.828 3.216 4.442 5.779.424 1.769.714 3.573.996 5.372.221 1.405.447 2.825.473 4.242.037 2.071-.068 4.146-.181 6.216a17.386 17.386 0 01-1.08 5.146c-1.12 2.993-2.368 5.937-3.534 8.913-.385.983-.681 2.001-1.045 3.082.562 0 1.018-.004 1.474.002.178.003.36.008.532.049 1.34.316 2.502.923 3.455 1.954 1.271 1.372 1.938 2.973 1.972 4.826.019 1.027-.089 2.057-.084 3.084.021 4.786.057 9.572.097 14.357.007.782.046 1.565.102 2.346.117 1.635.235 3.271.395 4.902.112 1.157.268 2.312.451 3.461.259 1.628 1 3.077 1.841 4.462.724 1.191 1.665 2.203 2.905 2.901 2.107 1.186 4.376 1.285 6.663.848 1.545-.295 3.062-.769 4.562-1.258a10.128 10.128 0 003.937-2.354c1.051-1.019 1.797-2.261 2.3-3.632.976-2.659 1.28-5.459 1.684-8.237.151-1.04.282-2.083.42-3.125.157-1.186.316-2.371.468-3.556.112-.883.214-1.768.322-2.651.154-1.268.317-2.535.464-3.804.113-.981.209-1.966.309-2.949.129-1.256.268-2.512.379-3.77.086-.955.051-1.927.22-2.864.311-1.718 1.123-3.18 2.646-4.125.637-.395 1.356-.655 2.063-.989l-.12-.186zm-57.597-7.052a17.526 17.526 0 01-1.354-5.622c-.128-1.825.089-3.643.276-5.46.182-1.76.333-3.528.386-5.296.088-2.906-.108-5.808-.247-8.712-.084-1.729.117-3.479.271-5.212.139-1.561.312-3.126.607-4.664.495-2.581 1.152-5.125 2.086-7.591.887-2.338 1.906-4.615 3.345-6.665.986-1.406 2.105-2.72 3.18-4.094l-.319-.113c-3.498-1.111-7.053-1.979-10.709-2.358-1.729-.179-3.464-.284-5.198-.387-.532-.032-1.072.04-1.606.091-1.322.126-2.66.176-3.961.424-2.214.421-4.338 1.129-6.305 2.282-1.766 1.035-3.249 2.373-4.491 3.978-1.372 1.772-2.295 3.776-2.958 5.913-.783 2.521-1.156 5.115-1.257 7.733-.088 2.295-.132 4.603.264 6.889.295 1.702.492 3.422.817 5.117.443 2.311.918 4.617 1.467 6.904.785 3.274 1.569 6.553 2.499 9.787.89 3.099 1.894 6.17 2.982 9.204.89 2.476 1.919 4.906 3.003 7.304.706 1.562 1.561 3.065 2.457 4.528.953 1.553 2.037 3.027 3.508 4.154 1.856 1.423 3.293 1.644 5.179.083.808-.669 1.491-1.495 2.194-2.282 1.117-1.25 2.195-2.534 3.307-3.788 1.416-1.598 2.85-3.179 4.273-4.769.301-.336.59-.682.883-1.022l-.484-.425a17.695 17.695 0 01-4.095-5.931zm53.688-47.569a61.488 61.488 0 013.309 4.204c2 2.809 3.598 5.842 4.775 9.087.521 1.43.937 2.874.751 4.439-.129 1.096-.118 2.208-.215 3.31-.081.917-.226 1.829-.345 2.743-.178 1.378-.436 2.752-.513 4.136-.073 1.317.003 2.648.086 3.968.084 1.341.265 2.676.388 4.015.139 1.518.326 3.036.369 4.557.035 1.249-.076 2.506-.185 3.753-.13 1.502-.511 2.956-1.079 4.351-.399.982-.876 1.934-1.327 2.917l.181.192.275.213.277-.496a93.621 93.621 0 006.222-11.493 186.333 186.333 0 003.287-7.766c1.624-4.064 2.909-8.242 3.903-12.503.446-1.913.787-3.855 1.09-5.797.236-1.518.433-3.054.477-4.586.047-1.625-.043-3.263-.193-4.884-.112-1.224-.414-2.456-1.181-3.451-1.233-1.602-2.564-3.134-4.201-4.346-1.378-1.021-2.751-2.068-4.23-2.927-2.345-1.36-4.883-2.266-7.535-2.883-2.588-.603-5.21-.863-7.849-.918-1.556-.033-3.119.134-4.672.28-1.407.132-2.805.357-4.222.543 1.52.855 3.019 1.615 4.433 2.511 2.973 1.883 5.637 4.149 7.924 6.831zM55.299 72.514c.961-3.073 2.27-6.007 3.538-8.959 1.028-2.394 1.59-4.916 1.777-7.506.093-1.277.067-2.57.004-3.851a44.628 44.628 0 00-.392-4.259c-.266-1.801-.569-3.603-.995-5.371-.462-1.913-1.627-3.245-3.623-3.736-1.216-.299-2.424-.287-3.653-.093-3.002.473-5.75 1.579-8.31 3.199-.515.326-.798.589-.709 1.328.188 1.565.229 3.155.222 4.735-.01 2.236-.105 4.472-.19 6.707-.028.728-.133 1.452-.211 2.177-.12 1.11-.351 2.219-.344 3.327.007 1.142.124 2.311.401 3.417.88 3.507 2.744 6.377 5.799 8.402 1.879 1.245 3.958 1.873 6.24 1.992.155-.524.293-1.019.446-1.509zm-3.586-30.087c-.402-.844-.172-1.543.76-1.867.227-.08.461-.165.697-.188.324-.032.654-.008.982-.008 1.182.006 2.319.171 3.295.923.626.482.794 1.122.389 1.779-.575.932-1.452 1.4-2.529 1.49-1.697.141-2.888-.65-3.594-2.129zm47.04-.308c.136-1.124.245-2.251.384-3.375.056-.452-.182-.574-.561-.585-1.192-.033-2.384-.075-3.576-.097-1.344-.024-2.652.192-3.896.703-1.38.568-2.431 1.478-2.86 2.98a9.042 9.042 0 00-.293 3.41 20.11 20.11 0 001.193 5.176c.834 2.221 1.707 4.441 2.75 6.569 1.413 2.881 3.012 5.67 4.513 8.507.401.757.738 1.547 1.156 2.431a13.783 13.783 0 001.351-5.622c.041-1.61-.088-3.227-.182-4.838-.059-.986-.198-1.966-.294-2.95-.134-1.371-.337-2.741-.368-4.115-.031-1.397.068-2.802.188-4.197.113-1.338.334-2.665.495-3.997zm-2.689-1.082c-.443 1.223-1.39 1.913-2.618 2.116-1.145.188-2.148-.235-2.894-1.148-.531-.65-.328-1.42.468-1.859.914-.506 1.919-.634 3.104-.711.322.059.807.108 1.268.24.669.189.916.692.672 1.362zm-35.422 37.66c-.655-.535-1.521-.566-2.144.021-.773.73-1.453 1.565-2.133 2.388-.785.951-1.521 1.94-2.534 2.677-1.474 1.071-3.192 1.515-4.919 1.935-1.373.334-2.752.644-4.129.965l-.017.178c.409.189.805.425 1.231.56 2.1.665 4.236.996 6.455.808 1.602-.136 3.128-.485 4.574-1.171 1.99-.943 3.521-2.437 4.823-4.175.218-.29.317-.719.343-1.093.089-1.321-.582-2.303-1.55-3.093zm51.751.526c-1.69.181-3.382.373-5.077.47-.818.047-1.648-.109-2.474-.176-1.385-.112-2.737-.42-3.908-1.16-.678-.427-1.241-.475-1.961-.233-1.028.346-1.867.872-2.115 1.986-.169.753-.23 1.533-.298 2.304-.013.136.157.386.287.42.793.209 1.59.456 2.401.529.996.09 2.01.061 3.013.011 1.083-.054 2.173-.124 3.24-.304 2.515-.422 4.948-1.11 7.109-2.536.779-.515 1.551-1.041 2.325-1.562l-.064-.11c-.826.123-1.648.273-2.478.361z"/></svg><text x="743" y="595" text-anchor="middle" font-family="Arial" font-size="20" fill="#20191D">PostgreSQL</text><rect x="819.333" y="507" width="136.667" height="102" rx="7" fill="#FFFDF8" stroke="#E6DCCD"/><svg data-tech="supabase" x="863.1666666666666" y="517" width="49" height="49" viewBox="0 0 128 128"><defs><linearGradient id="tech-supabase-a" x1="53.974" x2="94.163" y1="54.974" y2="71.829" gradientTransform="translate(29.387 60.096) scale(1.1436)" gradientUnits="userSpaceOnUse"><stop offset="0" stop-color="#249361"/><stop offset="1" stop-color="#3ecf8e"/></linearGradient><linearGradient id="tech-supabase-b" x1="36.156" x2="54.484" y1="30.578" y2="65.081" gradientTransform="translate(29.387 60.096) scale(1.1436)" gradientUnits="userSpaceOnUse"><stop offset="0"/><stop offset="1" stop-opacity="0"/></linearGradient></defs><path fill="url(#tech-supabase-a)" d="M102.24 186.21c-3.267 4.117-9.904 1.862-9.977-3.397l-1.156-76.906h51.715c9.365 0 14.587 10.817 8.763 18.149z" transform="translate(-27.722 -60.338)"/><path fill="url(#tech-supabase-b)" fill-opacity=".2" d="M102.24 186.21c-3.267 4.117-9.904 1.862-9.977-3.397l-1.156-76.906h51.715c9.365 0 14.587 10.817 8.763 18.149z" transform="translate(-27.722 -60.338)"/><path fill="#3ecf8e" d="M53.484 2.128c3.267-4.117 9.905-1.862 9.977 3.396l.508 76.907H12.902c-9.365 0-14.587-10.817-8.764-18.149z"/></svg><text x="887.667" y="595" text-anchor="middle" font-family="Arial" font-size="20" fill="#20191D">Supabase</text><rect x="530" y="620" width="136.667" height="102" rx="7" fill="#FFFDF8" stroke="#E6DCCD"/><svg data-tech="amazonwebservices" x="573.8333333333334" y="630" width="49" height="49" viewBox="0 0 128 128">
  <path fill="#f90" d="M108.59 26.148c-1.852 0-3.622.211-5.305.715-1.684.504-3.117 1.223-4.379 2.188a10.829 10.829 0 0 0-3.031 3.453c-.757 1.348-1.137 2.906-1.137 4.676 0 2.187.716 4.25 2.106 6.105 1.386 1.895 3.66 3.324 6.734 4.293l6.106 1.895c2.062.675 3.496 1.391 4.254 2.191.757.801 1.136 1.765 1.136 2.945 0 1.726-.758 3.074-2.191 4-1.43.925-3.492 1.391-6.145 1.391-1.687 0-3.328-.168-5.011-.504a23.102 23.102 0 0 1-4.633-1.476c-.421-.168-.801-.336-1.051-.418a2.357 2.357 0 0 0-.758-.13c-.634 0-.969.423-.969 1.305v2.149a2.919 2.919 0 0 0 .254 1.18c.168.38.629.8 1.305 1.18 1.094.628 2.734 1.179 4.84 1.683 2.105.504 4.297.758 6.484.758 2.15 0 4.129-.297 6.024-.883 1.808-.551 3.367-1.309 4.672-2.36 1.304-1.01 2.316-2.273 3.074-3.707.714-1.429 1.094-3.07 1.094-4.882 0-2.188-.633-4.168-1.938-5.895-1.304-1.727-3.491-3.074-6.523-4.043l-5.98-1.895c-2.23-.713-3.79-1.516-4.634-2.316-.84-.797-1.261-1.808-1.261-2.988 0-1.726.671-2.95 1.98-3.746 1.305-.801 3.199-1.18 5.598-1.18 2.988 0 5.683.547 8.086 1.64.714.337 1.261.508 1.597.508.633 0 .969-.463.969-1.347v-1.98c0-.59-.125-1.051-.379-1.391-.25-.378-.672-.715-1.262-1.051-.422-.254-1.011-.504-1.77-.758a32.528 32.528 0 0 0-2.398-.676c-.886-.168-1.769-.336-2.738-.46a21.347 21.347 0 0 0-2.82-.169zm-86.822.082c-2.316 0-4.508.254-6.57.801-2.063.505-3.831 1.137-5.303 1.895-.59.297-.97.59-1.18.883-.211.296-.293.8-.293 1.476v2.063c0 .882.293 1.304.883 1.304.168 0 .378-.043.674-.125.293-.086.796-.254 1.472-.547a33.416 33.416 0 0 1 4.547-1.433A19.176 19.176 0 0 1 20.547 32c3.242 0 5.513.633 6.863 1.938 1.304 1.303 1.98 3.534 1.98 6.734v3.074c-1.683-.379-3.283-.715-4.843-.926-1.558-.21-3.031-.336-4.461-.336-4.34 0-7.75 1.094-10.316 3.286-2.571 2.187-3.832 5.093-3.832 8.671 0 3.368 1.05 6.063 3.113 8.086 2.066 2.02 4.887 3.032 8.422 3.032 4.97 0 9.097-1.938 12.379-5.813a34.153 34.153 0 0 0 1.304 2.484 13.28 13.28 0 0 0 1.516 1.98c.422.38.844.59 1.266.59.334 0 .714-.128 1.093-.378l2.653-1.77c.546-.42.8-.843.8-1.261a1.86 1.86 0 0 0-.293-.97 22.469 22.469 0 0 1-1.347-3.03c-.297-.925-.465-2.19-.465-3.75h-.086V40c0-4.633-1.176-8.086-3.492-10.36-2.36-2.273-6.025-3.41-11.033-3.41zm19.58 1.012c-.676 0-1.012.379-1.012 1.051 0 .297.129.844.379 1.687l9.894 32.547c.254.8.547 1.387.887 1.641.336.297.84.422 1.598.422h3.62c.759 0 1.347-.125 1.684-.422.34-.293.591-.84.801-1.684l6.485-27.117 6.527 27.16c.168.84.46 1.387.8 1.684.337.292.883.422 1.684.422h3.621c.715 0 1.262-.167 1.598-.422.34-.253.633-.8.887-1.64L90.949 30.02c.168-.46.25-.797.293-1.051.043-.254.086-.466.086-.676 0-.715-.379-1.05-1.055-1.05H86.36c-.757 0-1.308.166-1.644.421-.293.25-.59.8-.84 1.64L76.59 57.517l-6.653-28.211c-.166-.8-.464-1.39-.8-1.64-.336-.298-.884-.423-1.684-.423h-3.367c-.758 0-1.348.167-1.688.422-.335.25-.588.8-.796 1.64l-6.57 27.876-7.075-27.875c-.25-.8-.504-1.39-.84-1.64-.297-.298-.844-.423-1.644-.423h-4.125zM21.64 47.496a31.816 31.816 0 0 1 3.96.25 34.401 34.401 0 0 1 3.872.719v1.765c0 1.435-.168 2.653-.422 3.665-.25 1.01-.758 1.895-1.43 2.695-1.137 1.262-2.484 2.187-4 2.695-1.516.504-2.949.758-4.336.758-1.937 0-3.41-.508-4.422-1.559-1.054-1.01-1.558-2.484-1.558-4.464 0-2.106.675-3.704 2.062-4.84 1.391-1.137 3.454-1.684 6.274-1.684zM118 73.348c-4.432.063-9.664 1.052-13.621 3.832-1.223.883-1.012 2.062.336 1.894 4.508-.547 14.44-1.726 16.21.547 1.77 2.23-1.976 11.62-3.663 15.79-.504 1.26.59 1.769 1.726.8 7.41-6.231 9.348-19.242 7.832-21.137-.757-.925-4.388-1.79-8.82-1.726zM1.63 75.859c-.926.116-1.347 1.236-.368 2.121 16.508 14.902 38.359 23.872 62.613 23.872 17.305 0 37.43-5.43 51.281-15.66 2.273-1.689.298-4.254-2.02-3.204-15.533 6.57-32.421 9.77-47.788 9.77-22.778 0-44.8-6.273-62.653-16.633-.39-.231-.755-.304-1.064-.266z"/>
</svg><text x="598.333" y="708" text-anchor="middle" font-family="Arial" font-size="20" fill="#20191D">AWS</text><rect x="674.667" y="620" width="136.667" height="102" rx="7" fill="#FFFDF8" stroke="#E6DCCD"/><svg data-tech="docker" x="718.5" y="630" width="49" height="49" viewBox="0 0 128 128"><path d="M124.8 52.1c-4.3-2.5-10-2.8-14.8-1.4-.6-5.2-4-9.7-8-12.9l-1.6-1.3-1.4 1.6c-2.7 3.1-3.5 8.3-3.1 12.3.3 2.9 1.2 5.9 3 8.3-1.4.8-2.9 1.9-4.3 2.4-2.8 1-5.9 2-8.9 2H79V49H66V24H51v12H26v13H13v14H1.8l-.2 1.5c-.5 6.4.3 12.6 3 18.5l1.1 2.2.1.2c7.9 13.4 21.7 19 36.8 19 29.2 0 53.3-13.1 64.3-40.6 7.4.4 15-1.8 18.6-8.9l.9-1.8-1.6-1zM28 39h10v11H28V39zm13.1 44.2c0 1.7-1.4 3.1-3.1 3.1-1.7 0-3.1-1.4-3.1-3.1 0-1.7 1.4-3.1 3.1-3.1 1.7.1 3.1 1.4 3.1 3.1zM28 52h10v11H28V52zm-13 0h11v11H15V52zm27.7 50.2c-15.8-.1-24.3-5.4-31.3-12.4 2.1.1 4.1.2 5.9.2 1.6 0 3.2 0 4.7-.1 3.9-.2 7.3-.7 10.1-1.5 2.3 5.3 6.5 10.2 14 13.8h-3.4zM51 63H40V52h11v11zm0-13H40V39h11v11zm13 13H53V52h11v11zm0-13H53V39h11v11zm0-13H53V26h11v11zm13 26H66V52h11v11zM38.8 81.2c-.2-.1-.5-.2-.8-.2-1.2 0-2.2 1-2.2 2.2 0 1.2 1 2.2 2.2 2.2s2.2-1 2.2-2.2c0-.3-.1-.6-.2-.8-.2.3-.4.5-.8.5-.5 0-.9-.4-.9-.9.1-.4.3-.7.5-.8z" fill="#019BC6"/></svg><text x="743" y="708" text-anchor="middle" font-family="Arial" font-size="20" fill="#20191D">Docker</text><path d="M530 746H956" stroke="#D7C7B0"/><text x="530" y="773" font-family="monospace" font-size="19" fill="#967028">Firestore / AWS fundamentals</text></svg>
